<?xml version="1.0" standalone="no"?>
<!DOCTYPE svg PUBLIC "-//W3C//DTD SVG 20010904//EN"
 "http://www.w3.org/TR/2001/REC-SVG-20010904/DTD/svg10.dtd">
<svg version="1.0" xmlns="http://www.w3.org/2000/svg"
 width="400.000000pt" height="300.000000pt" viewBox="0 0 400.000000 300.000000"
 preserveAspectRatio="xMidYMid meet">

<g transform="translate(0.000000,300.000000) scale(0.100000,-0.100000)"
fill="#000000" stroke="none">
<path d="M2210 2171 c-111 -34 -199 -140 -200 -240 l0 -44 39 6 c101 13 211
145 211 253 0 36 -6 38 -50 25z"/>
<path d="M2190 1880 c-19 -4 -68 -17 -107 -30 l-73 -24 -89 29 c-107 34 -179
32 -257 -8 -156 -79 -218 -268 -164 -494 36 -152 143 -332 231 -390 47 -31 72
-33 199 -14 84 12 183 9 269 -8 58 -12 103 2 153 47 50 44 127 159 152 227
l19 49 -24 15 c-54 36 -90 75 -116 129 -54 111 -26 249 67 323 l40 33 -37 38
c-58 59 -178 95 -263 78z"/>
</g>
</svg>
